<svg width="64" height="65" viewBox="0 0 64 65" fill="none" xmlns="http://www.w3.org/2000/svg">
<path fill-rule="evenodd" clip-rule="evenodd" d="M10.1052 45.3749V34.3976H18.5263V45.3749H10.1052ZM10.1052 45.3749V53.8959H0V45.3749H10.1052ZM10.1052 53.8959H18.5263V64.7134H10.1052V53.8959Z" fill="white"/>
<path d="M27.2471 30.5367V38.9842C27.2471 42.5137 24.3858 45.3749 20.8563 45.3749H18.5263V53.8959H20.8563C29.0918 53.8959 35.768 47.2197 35.768 38.9842V30.5367L35.7679 26.2762C35.7679 22.7467 38.6291 19.8855 42.1586 19.8855H45.4736V11.3646H42.1586C33.9231 11.3646 27.247 18.0408 27.247 26.2762L27.2471 30.5367Z" fill="white"/>
<path d="M53.8947 11.3646V0.713409H45.4736V11.3646H53.8947Z" fill="white"/>
<path d="M53.8947 19.8855H63.461V11.3646H53.8947V19.8855Z" fill="white"/>
<path d="M45.4736 19.8855V31.0292H53.8947V19.8855H45.4736Z" fill="white"/>
</svg>
